<?xml version="1.0" encoding="UTF-8"?>
<svg xmlns="http://www.w3.org/2000/svg" viewBox="0 0 245.5 66.3">
  <g fill="#1547E8">
    <path d="M52.24,14.02h-2.54l-.76-1.26-2.95-2.95h-9.48l-20.79,30.62v-.05s-.05-.72-.05-.72h0l-2.87-1.99-3.34,3.34v8.59h39.48v-3.76l-3.42-3.42h-1.73v-5.63l3.91-10.54,5.76-3.52v-6.24l-1.23-2.47h0ZM51.27,15.59l.31.62h-.89l-.29-.62h.87ZM51.91,21.86l-5.48,3.35-4.2,11.31v7.48h2.64l2.51,2.51v1.55h-4.68v-1.26l-1.86-1.86h-2.04v-15.14c0-.22-.09-.41-.23-.55-.14-.14-.34-.23-.55-.23-.43,0-.78.35-.78.78v15.14h-2.03v-4.07l-3.42-3.42h-7.19c-.05,0-.11,0-.16.02-.05.01-.1.03-.15.05-.09.04-.18.1-.25.17-.14.14-.23.34-.23.55,0,.43.35.78.78.78h6.54l2.51,2.51v4.98h6.54l.95.95v.61H11.03v-6.39l1.96-1.96,1.18.82.13,1.97s0,.03,0,.05l-1.12,1.65c-.06.09-.1.19-.12.29,0,.05-.01.1-.01.15,0,.1.02.2.06.29.06.14.15.26.29.36.06.04.12.07.19.09.02,0,.03.01.05.01.07.02.13.03.2.03,0,0,0,0,0,0,0,0,0,0,0,0,.05,0,.11,0,.16-.02.02,0,.03-.01.05-.02.04-.01.07-.02.11-.04.02,0,.04-.02.05-.03.03-.02.07-.04.1-.07.01-.01.03-.02.04-.03.04-.04.08-.08.12-.13l14.79-21.78,4.33-1.48c.15-.05.28-.15.37-.27.09-.12.15-.26.16-.42,0,0,0,0,0,0,0-.1,0-.2-.04-.3,0,0,0,0,0,0-.02-.07-.06-.14-.1-.2,0-.01-.02-.03-.03-.04-.04-.05-.09-.1-.15-.14,0,0-.02-.01-.03-.02-.05-.03-.11-.06-.17-.08-.01,0-.02,0-.03-.01-.07-.02-.13-.03-.21-.03,0,0-.01,0-.02,0,0,0-.02,0-.03,0-.08,0-.15.01-.23.04l-2.36.81,6.62-9.75h.1l2.4,7.71,5.82-5.82v-1.56l2.03,2.03.63,1.06c.01.07.03.13.06.19l1.3,2.79h2.21v4.09Z"/>
    <path d="M32.65,0C14.64,0,0,14.64,0,32.65s14.64,32.65,32.65,32.65,32.65-14.64,32.65-32.65S50.65,0,32.65,0ZM32.65,63.37c-16.94,0-30.73-13.78-30.73-30.73S15.7,1.92,32.65,1.92s30.73,13.78,30.73,30.73-13.78,30.73-30.73,30.73Z"/>
  </g>
  <g fill="#1547E8">
    <path d="M276 -14Q179 -14 117.0 28.0Q55 70 42 148L158 178Q165 143 181.5 123.0Q198 103 222.5 94.5Q247 86 276 86Q320 86 341.0 101.5Q362 117 362 140Q362 163 342.0 175.5Q322 188 278 196L250 201Q198 211 155.0 228.5Q112 246 86.0 277.0Q60 308 60 357Q60 431 114.0 470.5Q168 510 256 510Q339 510 394.0 473.0Q449 436 466 376L349 340Q341 378 316.5 394.0Q292 410 256 410Q220 410 201.0 397.5Q182 385 182 363Q182 339 202.0 327.5Q222 316 256 310L284 305Q340 295 385.5 278.5Q431 262 457.5 231.5Q484 201 484 149Q484 71 427.5 28.5Q371 -14 276 -14Z" transform="translate(79.30,30.00) scale(0.030000,-0.030000)"/>
    <path d="M306 -14Q232 -14 173.0 16.0Q114 46 80.0 103.0Q46 160 46 240V256Q46 336 80.0 393.0Q114 450 173.0 480.0Q232 510 306 510Q380 510 439.0 480.0Q498 450 532.0 393.0Q566 336 566 256V240Q566 160 532.0 103.0Q498 46 439.0 16.0Q380 -14 306 -14ZM306 98Q364 98 402.0 135.5Q440 173 440 243V253Q440 323 402.5 360.5Q365 398 306 398Q248 398 210.0 360.5Q172 323 172 253V243Q172 173 210.0 135.5Q248 98 306 98Z" transform="translate(95.02,30.00) scale(0.030000,-0.030000)"/>
    <path d="M303 -14Q231 -14 172.5 16.0Q114 46 80.0 103.0Q46 160 46 241V255Q46 336 80.0 393.0Q114 450 172.5 480.0Q231 510 303 510Q374 510 425.0 485.0Q476 460 507.5 416.5Q539 373 549 318L427 292Q423 322 409.0 346.0Q395 370 369.5 384.0Q344 398 306 398Q268 398 237.5 381.5Q207 365 189.5 332.5Q172 300 172 253V243Q172 196 189.5 163.5Q207 131 237.5 114.5Q268 98 306 98Q363 98 392.5 127.5Q422 157 430 205L552 176Q539 123 507.5 79.5Q476 36 425.0 11.0Q374 -14 303 -14Z" transform="translate(113.38,30.00) scale(0.030000,-0.030000)"/>
    <path d="M70 0V496H196V0ZM133 554Q99 554 75.5 576.0Q52 598 52 634Q52 670 75.5 692.0Q99 714 133 714Q168 714 191.0 692.0Q214 670 214 634Q214 598 191.0 576.0Q168 554 133 554Z" transform="translate(130.96,30.00) scale(0.030000,-0.030000)"/>
    <path d="M224 -14Q171 -14 129.0 4.5Q87 23 62.5 58.5Q38 94 38 145Q38 196 62.5 230.5Q87 265 130.5 282.5Q174 300 230 300H366V328Q366 363 344.0 385.5Q322 408 274 408Q227 408 204.0 386.5Q181 365 174 331L58 370Q70 408 96.5 439.5Q123 471 167.5 490.5Q212 510 276 510Q374 510 431.0 461.0Q488 412 488 319V134Q488 104 516 104H556V0H472Q435 0 411.0 18.0Q387 36 387 66V67H368Q364 55 350.0 35.5Q336 16 306.0 1.0Q276 -14 224 -14ZM246 88Q299 88 332.5 117.5Q366 147 366 196V206H239Q204 206 184.0 191.0Q164 176 164 149Q164 122 185.0 105.0Q206 88 246 88Z" transform="translate(138.94,30.00) scale(0.030000,-0.030000)"/>
    <path d="M70 0V700H196V0Z" transform="translate(156.28,30.00) scale(0.030000,-0.030000)"/>
  </g>
  <g fill="#1547E8">
    <path d="M70 0V700H196V0Z" transform="translate(171.88,30.00) scale(0.030000,-0.030000)"/>
    <path d="M70 0V496H196V0ZM133 554Q99 554 75.5 576.0Q52 598 52 634Q52 670 75.5 692.0Q99 714 133 714Q168 714 191.0 692.0Q214 670 214 634Q214 598 191.0 576.0Q168 554 133 554Z" transform="translate(179.86,30.00) scale(0.030000,-0.030000)"/>
    <path d="M70 0V496H194V431H212Q224 457 257.0 480.5Q290 504 357 504Q415 504 458.5 477.5Q502 451 526.0 404.5Q550 358 550 296V0H424V286Q424 342 396.5 370.0Q369 398 318 398Q260 398 228.0 359.5Q196 321 196 252V0Z" transform="translate(187.84,30.00) scale(0.030000,-0.030000)"/>
    <path d="M259 -8Q201 -8 157.5 18.5Q114 45 90.0 92.0Q66 139 66 200V496H192V210Q192 154 219.5 126.0Q247 98 298 98Q356 98 388.0 136.5Q420 175 420 244V496H546V0H422V65H404Q392 40 359.0 16.0Q326 -8 259 -8Z" transform="translate(206.32,30.00) scale(0.030000,-0.030000)"/>
    <path d="M276 -14Q179 -14 117.0 28.0Q55 70 42 148L158 178Q165 143 181.5 123.0Q198 103 222.5 94.5Q247 86 276 86Q320 86 341.0 101.5Q362 117 362 140Q362 163 342.0 175.5Q322 188 278 196L250 201Q198 211 155.0 228.5Q112 246 86.0 277.0Q60 308 60 357Q60 431 114.0 470.5Q168 510 256 510Q339 510 394.0 473.0Q449 436 466 376L349 340Q341 378 316.5 394.0Q292 410 256 410Q220 410 201.0 397.5Q182 385 182 363Q182 339 202.0 327.5Q222 316 256 310L284 305Q340 295 385.5 278.5Q431 262 457.5 231.5Q484 201 484 149Q484 71 427.5 28.5Q371 -14 276 -14Z" transform="translate(224.80,30.00) scale(0.030000,-0.030000)"/>
  </g>
  <g fill="#1547E8">
    <path d="M82 0 11 700H87L154 36H166L229 700H383L446 36H458L525 700H601L530 0H377L312 664H300L235 0Z" transform="translate(79.30,48.00) scale(0.011500,-0.011500)"/>
    <path d="M94 0V700H518V622H178V390H512V312H178V78H524V0Z" transform="translate(86.34,48.00) scale(0.011500,-0.011500)"/>
    <path d="M57 0V78H117V622H57V700H340Q441 700 494.0 648.0Q547 596 547 518V506Q547 449 513.0 410.0Q479 371 429 357V345Q479 332 513.0 291.5Q547 251 547 195V183Q547 104 494.0 52.0Q441 0 340 0ZM201 390H337Q397 390 432.0 421.0Q467 452 467 506V512Q467 563 430.0 592.5Q393 622 334 622H201ZM201 78H334Q393 78 430.0 107.5Q467 137 467 189V195Q467 248 432.0 280.0Q397 312 337 312H201Z" transform="translate(93.38,48.00) scale(0.011500,-0.011500)"/>
    <path d="M320 -14Q230 -14 169.0 19.5Q108 53 76.5 111.0Q45 169 45 242V272H129V248Q129 157 180.0 110.5Q231 64 320 64Q398 64 437.5 99.0Q477 134 477 190V196Q477 251 436.5 280.0Q396 309 305 322Q200 337 137.5 381.5Q75 426 75 516V528Q75 583 104.5 624.5Q134 666 186.0 690.0Q238 714 306 714Q385 714 440.5 685.0Q496 656 525.5 608.5Q555 561 555 504V462H471V498Q471 544 448.0 574.5Q425 605 387.0 620.5Q349 636 305 636Q267 636 233.5 623.0Q200 610 179.5 585.5Q159 561 159 525V519Q159 461 206.0 434.5Q253 408 347 394Q457 378 509.0 330.0Q561 282 561 202V190Q561 99 499.5 42.5Q438 -14 320 -14Z" transform="translate(107.45,48.00) scale(0.011500,-0.011500)"/>
    <path d="M94 0V700H518V622H178V390H512V312H178V78H524V0Z" transform="translate(114.49,48.00) scale(0.011500,-0.011500)"/>
    <path d="M85 0V700H335Q407 700 454.5 673.5Q502 647 525.5 604.0Q549 561 549 510V480Q549 441 527.5 402.0Q506 363 461 342V330Q491 326 508.0 306.5Q525 287 525 252V0H441V234Q441 260 429.0 274.0Q417 288 387 288H169V0ZM169 366H325Q465 366 465 486V504Q465 557 430.5 589.5Q396 622 325 622H169Z" transform="translate(121.53,48.00) scale(0.011500,-0.011500)"/>
    <path d="M225 0 27 700H117L300 36H312L495 700H585L387 0Z" transform="translate(128.57,48.00) scale(0.011500,-0.011500)"/>
    <path d="M84 0V78H264V622H84V700H528V622H348V78H528V0Z" transform="translate(135.60,48.00) scale(0.011500,-0.011500)"/>
    <path d="M310 -14Q195 -14 129.5 59.5Q64 133 64 272V428Q64 563 129.5 638.5Q195 714 310 714Q390 714 445.0 680.0Q500 646 528.0 588.5Q556 531 556 460V448H472V460Q471 506 454.5 546.0Q438 586 402.5 611.0Q367 636 310 636Q229 636 188.5 577.0Q148 518 148 422V278Q148 176 188.5 120.0Q229 64 310 64Q367 64 403.0 89.0Q439 114 455.5 154.0Q472 194 472 240V252H556V240Q556 169 528.0 111.5Q500 54 445.0 20.0Q390 -14 310 -14Z" transform="translate(142.64,48.00) scale(0.011500,-0.011500)"/>
    <path d="M94 0V700H518V622H178V390H512V312H178V78H524V0Z" transform="translate(149.68,48.00) scale(0.011500,-0.011500)"/>
    <path d="M320 -14Q230 -14 169.0 19.5Q108 53 76.5 111.0Q45 169 45 242V272H129V248Q129 157 180.0 110.5Q231 64 320 64Q398 64 437.5 99.0Q477 134 477 190V196Q477 251 436.5 280.0Q396 309 305 322Q200 337 137.5 381.5Q75 426 75 516V528Q75 583 104.5 624.5Q134 666 186.0 690.0Q238 714 306 714Q385 714 440.5 685.0Q496 656 525.5 608.5Q555 561 555 504V462H471V498Q471 544 448.0 574.5Q425 605 387.0 620.5Q349 636 305 636Q267 636 233.5 623.0Q200 610 179.5 585.5Q159 561 159 525V519Q159 461 206.0 434.5Q253 408 347 394Q457 378 509.0 330.0Q561 282 561 202V190Q561 99 499.5 42.5Q438 -14 320 -14Z" transform="translate(156.72,48.00) scale(0.011500,-0.011500)"/>
  </g>
</svg>